<svg width="31" height="49" viewBox="0 0 31 49" fill="none" xmlns="http://www.w3.org/2000/svg">
<path d="M11.656 35.136C10.6107 35.136 9.608 34.6773 8.648 33.76C7.70933 32.8427 6.94133 31.5093 6.344 29.76C5.74667 28.032 5.448 25.9413 5.448 23.488C5.448 23.1893 5.448 22.88 5.448 22.56C5.46933 22.24 5.49067 21.9093 5.512 21.568C5.29867 21.5893 5.08533 21.6 4.872 21.6C4.68 21.6 4.49867 21.6 4.328 21.6C3.09067 21.6 2.184 21.44 1.608 21.12C1.05333 20.8 0.776 20.384 0.776 19.872C0.776 19.36 1.02133 18.7947 1.512 18.176C2.024 17.5573 2.728 16.928 3.624 16.288C4.52 15.648 5.55467 15.072 6.728 14.56C7.21867 12.7893 7.85867 10.9227 8.648 8.96C9.43733 6.99733 10.4187 4.94933 11.592 2.816C11.7413 2.53867 11.9653 2.4 12.264 2.4C12.456 2.4 12.6267 2.464 12.776 2.592C12.9253 2.72 13 2.89067 13 3.104C13 3.21066 12.968 3.34933 12.904 3.52C12.7333 3.86133 12.5627 4.21333 12.392 4.576C12.2213 4.91733 12.0507 5.25867 11.88 5.6C12.2 5.536 12.4453 5.504 12.616 5.504C12.7867 5.504 12.9893 5.49333 13.224 5.472C13.4587 5.45067 13.8213 5.408 14.312 5.344C14.9947 5.23733 15.6347 5.152 16.232 5.088C16.8507 5.024 17.4267 4.992 17.96 4.992C19.9867 4.992 21.48 5.344 22.44 6.048C23.4 6.752 23.88 7.648 23.88 8.736C23.88 10.0373 23.2507 11.4667 21.992 13.024C20.9467 14.304 19.6347 15.5413 18.056 16.736C16.4987 17.9307 14.7387 18.9547 12.776 19.808C10.8347 20.64 8.76533 21.1947 6.568 21.472C6.48267 22.0907 6.41867 22.688 6.376 23.264C6.33333 23.84 6.312 24.384 6.312 24.896C6.312 26.752 6.52533 28.2773 6.952 29.472C7.4 30.688 7.944 31.6373 8.584 32.32C9.24533 33.0027 9.896 33.4827 10.536 33.76C11.1973 34.0373 11.7307 34.176 12.136 34.176C12.456 34.176 12.6693 34.1227 12.776 34.016C12.8613 33.9093 12.9573 33.856 13.064 33.856C13.2987 33.856 13.416 34.016 13.416 34.336C13.416 34.592 13.2987 34.7627 13.064 34.848C12.616 35.04 12.1467 35.136 11.656 35.136ZM6.664 20.896C8.904 20.448 10.9307 19.7653 12.744 18.848C14.5787 17.9307 16.2 16.8747 17.608 15.68C19.016 14.4853 20.2 13.2373 21.16 11.936C21.7147 11.2107 22.1093 10.56 22.344 9.984C22.5787 9.38667 22.696 8.864 22.696 8.416C22.696 7.69067 22.44 7.11467 21.928 6.688C21.4373 6.24 20.7867 5.92 19.976 5.728C19.1653 5.536 18.2907 5.44 17.352 5.44C16.3707 5.44 15.4 5.52533 14.44 5.696C13.48 5.86667 12.6267 6.09067 11.88 6.368C11.7307 6.432 11.6027 6.44267 11.496 6.4C10.8773 7.76533 10.312 9.07733 9.8 10.336C9.30933 11.5733 8.872 12.7573 8.488 13.888C9.40533 13.5893 10.3653 13.3333 11.368 13.12C12.3707 12.9067 13.4053 12.7787 14.472 12.736H14.6C14.8133 12.736 14.92 12.7787 14.92 12.864C14.92 12.928 14.8133 13.0027 14.6 13.088C14.408 13.1733 14.0773 13.2267 13.608 13.248C12.6267 13.2907 11.6987 13.4187 10.824 13.632C9.94933 13.824 9.11733 14.0693 8.328 14.368C7.92267 15.6053 7.58133 16.768 7.304 17.856C7.048 18.944 6.83467 19.9573 6.664 20.896ZM4.456 21.152C4.62667 21.152 4.79733 21.152 4.968 21.152C5.16 21.1307 5.352 21.1093 5.544 21.088C5.62933 20.1707 5.75733 19.2213 5.928 18.24C6.09867 17.2373 6.32267 16.2027 6.6 15.136C5.23467 15.84 4.14667 16.6293 3.336 17.504C2.52533 18.3573 2.12 19.1147 2.12 19.776C2.12 20.1813 2.312 20.512 2.696 20.768C3.08 21.024 3.66667 21.152 4.456 21.152Z" fill="white"/>
<path d="M15.22 38.304C15.1133 38.304 15.06 38.2187 15.06 38.048C15.06 37.8987 15.1133 37.7173 15.22 37.504C15.3267 37.2907 15.4653 37.12 15.636 36.992C15.8067 36.8853 15.988 36.768 16.18 36.64C16.3507 36.5333 16.5213 36.4373 16.692 36.352C16.6707 36.3093 16.66 36.2347 16.66 36.128C16.66 35.9573 16.7133 35.872 16.82 35.872C16.884 35.872 16.98 35.9467 17.108 36.096C18.772 35.1787 20.3933 34.5067 21.972 34.08V33.984C21.972 33.3867 21.812 32.832 21.492 32.32C21.1933 31.808 20.8093 31.2853 20.34 30.752C19.8707 30.2187 19.3907 29.632 18.9 28.992C18.4307 28.352 18.004 27.6267 17.62 26.816C17.2573 25.984 17.0227 25.0133 16.916 23.904C16.8947 23.776 16.884 23.648 16.884 23.52C16.884 23.392 16.884 23.264 16.884 23.136C16.884 21.7707 17.1933 20.5333 17.812 19.424C18.4307 18.3147 19.2307 17.3653 20.212 16.576C21.2147 15.7653 22.292 15.136 23.444 14.688C24.3613 14.3253 25.4067 14.144 26.58 14.144C27.0067 14.144 27.412 14.176 27.796 14.24C28.9267 14.4533 29.716 14.8267 30.164 15.36C30.612 15.8933 30.836 16.4267 30.836 16.96C30.836 17.3653 30.7293 17.728 30.516 18.048C30.3027 18.368 30.1533 18.528 30.068 18.528C30.004 18.528 29.972 18.4853 29.972 18.4C29.972 18.3573 29.9827 18.2933 30.004 18.208C30.0467 18.1013 30.0787 17.9947 30.1 17.888C30.164 17.7173 30.2067 17.568 30.228 17.44C30.2493 17.312 30.26 17.184 30.26 17.056C30.26 16.3733 29.94 15.872 29.3 15.552C28.6813 15.2107 28.02 15.04 27.316 15.04C27.2307 15.04 27.1347 15.04 27.028 15.04C26.9213 15.04 26.8147 15.0507 26.708 15.072C25.364 15.264 24.0947 15.7547 22.9 16.544C21.7053 17.3333 20.692 18.368 19.86 19.648C19.0493 20.9067 18.516 22.3573 18.26 24C18.2387 24.1493 18.2173 24.2987 18.196 24.448C18.196 24.5973 18.196 24.736 18.196 24.864C18.196 25.8667 18.4093 26.784 18.836 27.616C19.2627 28.4267 19.764 29.184 20.34 29.888C20.9373 30.592 21.5027 31.2747 22.036 31.936C22.5693 32.576 22.932 33.216 23.124 33.856C23.5507 33.7707 23.9667 33.7173 24.372 33.696C24.7773 33.6747 25.172 33.6747 25.556 33.696C25.8547 33.7387 26.004 33.824 26.004 33.952C26.004 34.08 25.7907 34.144 25.364 34.144C25.0653 34.144 24.7347 34.1653 24.372 34.208C24.0093 34.2293 23.6253 34.2933 23.22 34.4C23.2413 34.464 23.252 34.528 23.252 34.592C23.252 34.656 23.252 34.7093 23.252 34.752C23.252 34.9653 23.22 35.1893 23.156 35.424C22.8787 36.2773 22.3773 36.9067 21.652 37.312C20.9267 37.7173 20.1907 37.92 19.444 37.92C18.7187 37.92 18.1107 37.7707 17.62 37.472C17.4493 37.3867 17.2893 37.2693 17.14 37.12C16.8627 37.2693 16.5853 37.44 16.308 37.632C16.0093 37.824 15.7213 38.016 15.444 38.208C15.3587 38.272 15.284 38.304 15.22 38.304ZM19.156 37.344C19.7747 37.344 20.3827 37.1413 20.98 36.736C21.5773 36.352 21.908 35.7013 21.972 34.784C20.564 35.2747 19.1133 35.9573 17.62 36.832C17.9613 37.1733 18.4733 37.344 19.156 37.344Z" fill="white"/>
</svg>
