<svg width="16" height="25" viewBox="0 0 16 25" fill="none" xmlns="http://www.w3.org/2000/svg">
<path d="M0.22 24.304C0.113333 24.304 0.0599999 24.2187 0.0599999 24.048C0.0599999 23.8987 0.113333 23.7173 0.22 23.504C0.326667 23.2907 0.465333 23.12 0.636 22.992C0.806667 22.8853 0.988 22.768 1.18 22.64C1.35067 22.5333 1.52133 22.4373 1.692 22.352C1.67067 22.3093 1.66 22.2347 1.66 22.128C1.66 21.9573 1.71333 21.872 1.82 21.872C1.884 21.872 1.98 21.9467 2.108 22.096C3.772 21.1787 5.39333 20.5067 6.972 20.08V19.984C6.972 19.3867 6.812 18.832 6.492 18.32C6.19333 17.808 5.80933 17.2853 5.34 16.752C4.87067 16.2187 4.39067 15.632 3.9 14.992C3.43067 14.352 3.004 13.6267 2.62 12.816C2.25733 11.984 2.02267 11.0133 1.916 9.904C1.89467 9.776 1.884 9.648 1.884 9.52C1.884 9.392 1.884 9.264 1.884 9.136C1.884 7.77067 2.19333 6.53333 2.812 5.424C3.43067 4.31467 4.23067 3.36533 5.212 2.576C6.21467 1.76533 7.292 1.136 8.444 0.688C9.36133 0.325333 10.4067 0.143999 11.58 0.143999C12.0067 0.143999 12.412 0.175999 12.796 0.24C13.9267 0.453333 14.716 0.826666 15.164 1.36C15.612 1.89333 15.836 2.42667 15.836 2.96C15.836 3.36533 15.7293 3.728 15.516 4.048C15.3027 4.368 15.1533 4.528 15.068 4.528C15.004 4.528 14.972 4.48533 14.972 4.4C14.972 4.35733 14.9827 4.29333 15.004 4.208C15.0467 4.10133 15.0787 3.99467 15.1 3.888C15.164 3.71733 15.2067 3.568 15.228 3.44C15.2493 3.312 15.26 3.184 15.26 3.056C15.26 2.37333 14.94 1.872 14.3 1.552C13.6813 1.21067 13.02 1.04 12.316 1.04C12.2307 1.04 12.1347 1.04 12.028 1.04C11.9213 1.04 11.8147 1.05067 11.708 1.072C10.364 1.264 9.09467 1.75467 7.9 2.544C6.70533 3.33333 5.692 4.368 4.86 5.648C4.04933 6.90667 3.516 8.35733 3.26 10C3.23867 10.1493 3.21733 10.2987 3.196 10.448C3.196 10.5973 3.196 10.736 3.196 10.864C3.196 11.8667 3.40933 12.784 3.836 13.616C4.26267 14.4267 4.764 15.184 5.34 15.888C5.93733 16.592 6.50267 17.2747 7.036 17.936C7.56933 18.576 7.932 19.216 8.124 19.856C8.55067 19.7707 8.96667 19.7173 9.372 19.696C9.77733 19.6747 10.172 19.6747 10.556 19.696C10.8547 19.7387 11.004 19.824 11.004 19.952C11.004 20.08 10.7907 20.144 10.364 20.144C10.0653 20.144 9.73467 20.1653 9.372 20.208C9.00933 20.2293 8.62533 20.2933 8.22 20.4C8.24133 20.464 8.252 20.528 8.252 20.592C8.252 20.656 8.252 20.7093 8.252 20.752C8.252 20.9653 8.22 21.1893 8.156 21.424C7.87867 22.2773 7.37733 22.9067 6.652 23.312C5.92667 23.7173 5.19067 23.92 4.444 23.92C3.71867 23.92 3.11067 23.7707 2.62 23.472C2.44933 23.3867 2.28933 23.2693 2.14 23.12C1.86267 23.2693 1.58533 23.44 1.308 23.632C1.00933 23.824 0.721333 24.016 0.444 24.208C0.358667 24.272 0.284 24.304 0.22 24.304ZM4.156 23.344C4.77467 23.344 5.38267 23.1413 5.98 22.736C6.57733 22.352 6.908 21.7013 6.972 20.784C5.564 21.2747 4.11333 21.9573 2.62 22.832C2.96133 23.1733 3.47333 23.344 4.156 23.344Z" fill="white"/>
</svg>
